<svg id="logo-8" width="35" height="30"  fill="none" xmlns="http://www.w3.org/2000/svg"> <path d="M22.419 13.371C22.04 13.7523 21.7498 14.2125 21.569 14.7187C21.3882 15.225 21.3213 15.7649 21.373 16.3L21.355 16.282C21.4082 16.9119 21.3232 17.5457 21.1061 18.1394C20.889 18.733 20.545 19.2721 20.0981 19.7191C19.6511 20.166 19.112 20.5101 18.5183 20.7271C17.9247 20.9442 17.2908 21.0292 16.661 20.976L16.679 20.994C15.9256 20.9239 15.1689 21.0878 14.512 21.4635C13.8552 21.8392 13.3302 22.4083 13.0087 23.0933C12.6872 23.7783 12.5847 24.5457 12.7153 25.2911C12.846 26.0364 13.2033 26.7233 13.7386 27.2581C14.2739 27.7929 14.9611 28.1496 15.7065 28.2795C16.452 28.4095 17.2193 28.3063 17.904 27.9842C18.5887 27.662 19.1573 27.1366 19.5324 26.4794C19.9075 25.8222 20.0708 25.0654 20 24.312L20.019 24.33C19.9658 23.7002 20.0507 23.0663 20.2678 22.4726C20.4849 21.879 20.829 21.3399 21.2759 20.8929C21.7229 20.446 22.262 20.1019 22.8556 19.8849C23.4493 19.6678 24.0831 19.5828 24.713 19.636L24.694 19.618C25.3094 19.6733 25.9289 19.5724 26.495 19.3246C27.061 19.0768 27.5554 18.6901 27.9322 18.2004C28.309 17.7107 28.5562 17.1337 28.6506 16.5231C28.7451 15.9124 28.6839 15.2878 28.4727 14.707C28.2615 14.1263 27.9071 13.6083 27.4424 13.201C26.9777 12.7937 26.4177 12.5103 25.8143 12.3771C25.2109 12.2439 24.5836 12.2651 23.9906 12.4388C23.3976 12.6126 22.8581 12.9332 22.422 13.371H22.419Z" class="ccompli2" fill="#7476ED"></path> <path d="M15.042 18.636L15.023 18.618C15.5583 18.6719 16.0989 18.6062 16.6058 18.4256C17.1126 18.245 17.573 17.9541 17.9536 17.5738C18.3341 17.1935 18.6255 16.7333 18.8064 16.2266C18.9874 15.7199 19.0535 15.1794 19 14.644L19.019 14.662C18.9658 14.0321 19.0508 13.3983 19.2678 12.8046C19.4849 12.211 19.829 11.6719 20.2759 11.2249C20.7229 10.778 21.262 10.4339 21.8556 10.2169C22.4493 9.99976 23.0831 9.91483 23.713 9.968L23.694 9.95C24.4475 10.0208 25.2044 9.85736 25.8616 9.4821C26.5189 9.10684 27.0443 8.53797 27.3663 7.8531C27.6883 7.16824 27.7912 6.40071 27.661 5.6552C27.5308 4.90969 27.1738 4.22251 26.6386 3.68737C26.1035 3.15224 25.4163 2.7952 24.6708 2.66498C23.9253 2.53475 23.1578 2.63766 22.4729 2.95968C21.788 3.28169 21.2192 3.80714 20.8439 4.46435C20.4686 5.12155 20.3052 5.87852 20.376 6.632L20.358 6.613C20.4113 7.24289 20.3265 7.87683 20.1095 8.47055C19.8925 9.06427 19.5484 9.60346 19.1015 10.0505C18.6545 10.4974 18.1153 10.8415 17.5216 11.0585C16.9278 11.2755 16.2939 11.3603 15.664 11.307L15.682 11.326C15.1467 11.2721 14.606 11.3378 14.0992 11.5184C13.5924 11.6989 13.132 11.9899 12.7514 12.3702C12.3708 12.7505 12.0795 13.2107 11.8985 13.7174C11.7176 14.2241 11.6515 14.7646 11.705 15.3L11.687 15.282C11.74 15.9118 11.6549 16.5456 11.4378 17.1392C11.2206 17.7327 10.8766 18.2718 10.4297 18.7187C9.98276 19.1656 9.44372 19.5096 8.85016 19.7268C8.2566 19.9439 7.62281 20.029 6.993 19.976L7.011 19.994C6.25752 19.9232 5.50055 20.0866 4.84334 20.4619C4.18614 20.8372 3.66069 21.406 3.33868 22.0909C3.01666 22.7758 2.91374 23.5433 3.04397 24.2888C3.1742 25.0343 3.53124 25.7215 4.06637 26.2566C4.60151 26.7918 5.28869 27.1488 6.0342 27.279C6.77971 27.4092 7.54724 27.3063 8.23211 26.9843C8.91697 26.6623 9.48584 26.1369 9.8611 25.4797C10.2364 24.8224 10.3998 24.0655 10.329 23.312L10.348 23.33C10.2948 22.7001 10.3798 22.0663 10.5969 21.4726C10.8139 20.879 11.158 20.3399 11.6049 19.8929C12.0519 19.446 12.591 19.1019 13.1846 18.8849C13.7783 18.6678 14.4121 18.5828 15.042 18.636V18.636Z" class="ccompli1" fill="#0080ff"></path> <path d="M8.34 16.629C8.71902 16.2478 9.0092 15.7876 9.18984 15.2813C9.37048 14.775 9.43712 14.235 9.385 13.7L9.40399 13.718C9.35079 13.088 9.43575 12.4539 9.65296 11.8601C9.87017 11.2663 10.2144 10.7271 10.6616 10.2801C11.1088 9.83312 11.6481 9.48913 12.242 9.27218C12.8359 9.05522 13.47 8.97052 14.1 9.024L14.081 9.006C14.8342 9.07657 15.5909 8.91308 16.2478 8.53784C16.9047 8.16261 17.4298 7.59388 17.7517 6.90923C18.0735 6.22457 18.1763 5.45732 18.0461 4.71209C17.9159 3.96686 17.5589 3.27994 17.024 2.745C16.4891 2.21006 15.8021 1.85314 15.0569 1.72292C14.3117 1.59269 13.5444 1.69551 12.8598 2.01733C12.1751 2.33915 11.6064 2.86432 11.2312 3.52122C10.8559 4.17812 10.6924 4.93478 10.763 5.688L10.745 5.67C10.7982 6.29985 10.7132 6.93372 10.4961 7.52736C10.279 8.121 9.93502 8.66011 9.48806 9.10707C9.04111 9.55403 8.50199 9.89806 7.90835 10.1151C7.31471 10.3322 6.68085 10.4172 6.051 10.364L6.069 10.382C5.45357 10.3268 4.83416 10.4279 4.26818 10.6758C3.7022 10.9237 3.20795 11.3105 2.83124 11.8003C2.45453 12.29 2.20755 12.867 2.11317 13.4776C2.0188 14.0883 2.08009 14.7129 2.29136 15.2935C2.50263 15.8742 2.85706 16.3921 3.32179 16.7993C3.78652 17.2066 4.34652 17.4899 4.9499 17.6231C5.55327 17.7562 6.1805 17.7349 6.77347 17.5612C7.36643 17.3874 7.90593 17.0668 8.34199 16.629H8.34Z" class="ccustom" fill="#E56F8C"></path> </svg>
